# xmcd
#
# Track frame offsets: 
#        150
#        27127
#        40772
#        60285
#        85075
#        107149
#        130056
#        150540
#        171675
#        197556
#        212054
#
# Disc length: 3022 seconds
#
# Revision: 0
# Processed by: cddbd v1.5.2PL0 Copyright (c) Steve Scherf et al.
# Submitted via: ExactAudioCopyFreeDBPlugin 1.0
#
DISCID=8a0bcc0b
DTITLE=Double Exposure - Fourplay (2012 Remastered)
DYEAR=1978
DGENRE=Funk
TTITLE0=I Declare War
TTITLE1=Handy Man
TTITLE2=Why Do You Have To Leave
TTITLE3=Falling In Love
TTITLE4=Newsy Neighbors
TTITLE5=Perfect Lover
TTITLE6=There Is No Reason
TTITLE7=There’s Something Missing
TTITLE8=Newsy Neighbors (Unreleased 12” Mix)
TTITLE9=Newsy Neighbors (Original Single Version)
TTITLE10=Perfect Lover (Original Single Version)
EXTD=
EXTT0=
EXTT1=
EXTT2=
EXTT3=
EXTT4=
EXTT5=
EXTT6=
EXTT7=
EXTT8=
EXTT9=
EXTT10=
PLAYORDER=
